<mxfile host="app.diagrams.net" modified="2024-06-19T18:20:57.018Z" agent="Mozilla/5.0 (Macintosh; Intel Mac OS X 10_15_7) AppleWebKit/605.1.15 (KHTML, like Gecko) Version/17.5 Safari/605.1.15" etag="DfwFNtTxgh4ov7qVxvRZ" version="24.5.5" type="github">
  <diagram name="Page-1" id="6r_rBOuLIpSr8sd9RdAU">
    <mxGraphModel dx="1748" dy="1168" grid="0" gridSize="10" guides="1" tooltips="1" connect="1" arrows="1" fold="1" page="0" pageScale="1" pageWidth="827" pageHeight="1169" math="0" shadow="0">
      <root>
        <mxCell id="0" />
        <mxCell id="1" parent="0" />
        <mxCell id="2" value="Scraping Application" style="whiteSpace=wrap;strokeWidth=2;verticalAlign=top;" parent="1" vertex="1">
          <mxGeometry x="163" width="178" height="158" as="geometry" />
        </mxCell>
        <mxCell id="3" value="Scraping App" style="ellipse;aspect=fixed;strokeWidth=2;whiteSpace=wrap;" parent="1" vertex="1">
          <mxGeometry x="198" y="25" width="108" height="108" as="geometry" />
        </mxCell>
        <mxCell id="4" value="Database" style="whiteSpace=wrap;strokeWidth=2;verticalAlign=top;" parent="1" vertex="1">
          <mxGeometry x="14" y="208" width="285" height="131" as="geometry" />
        </mxCell>
        <mxCell id="5" value="Database" style="ellipse;aspect=fixed;strokeWidth=2;whiteSpace=wrap;" parent="1" vertex="1">
          <mxGeometry x="121" y="233" width="81" height="81" as="geometry" />
        </mxCell>
        <mxCell id="6" value="Web Application" style="whiteSpace=wrap;strokeWidth=2;verticalAlign=top;" parent="1" vertex="1">
          <mxGeometry width="143" height="158" as="geometry" />
        </mxCell>
        <mxCell id="7" value="Webapp" style="ellipse;aspect=fixed;strokeWidth=2;whiteSpace=wrap;" parent="1" vertex="1">
          <mxGeometry x="35" y="43" width="73" height="73" as="geometry" />
        </mxCell>
        <mxCell id="8" value="" style="curved=1;startArrow=none;endArrow=block;exitX=0.5;exitY=0.99;entryX=0;entryY=0.13;" parent="1" source="7" target="5" edge="1">
          <mxGeometry relative="1" as="geometry">
            <Array as="points">
              <mxPoint x="71" y="208" />
            </Array>
          </mxGeometry>
        </mxCell>
        <mxCell id="9" value="" style="curved=1;startArrow=none;endArrow=block;exitX=0.49;exitY=1;entryX=0.99;entryY=0.13;" parent="1" source="3" target="5" edge="1">
          <mxGeometry relative="1" as="geometry">
            <Array as="points">
              <mxPoint x="251" y="208" />
            </Array>
          </mxGeometry>
        </mxCell>
        <mxCell id="bpA3IQJ9Ygz0QH53XhGm-33" value="" style="shape=stencil(7VlJchsxDHyNrihwJ85O8g9XWY5VcSyX7Wy/DxiF4yE4asWnXHyTNGyRaGxNzC5cPd9dP+53np9fno5f9j8ONy93u/Bh5/3h4W7/dHjRT7vwcReubo9P+89Px28PN6fvj9dtZfv09fi9/cPPEy6Qqw3k+dfpBybn/vzw6bT8/vCwWu6YvAzrPbkI1ieKYVgfKPrz69vf+WG9/gGD9ZU4DesLeXCeEKiUYb1QSmC9kBvP7zyFfB4QI/k8AhLVAgBCbHYQErBDCpRHgI+UgM2pdhctAKEIANl3Hy1OixQFADKFMYoC3qFolI1hpLw5wFJRv41+jpVSAIBCPPohefIAUHkCJEhr9T1yFkCFsV3VTSNLmUmA0XWiNQcKCCCUDaDA8BZPZTS6OBJggyQKbgRkKqBgiNowRmvRjEM7FGu0Es3AD1LtkZRolHEKkNHoWnpKbQOEyphAylsGtDrWYOIRkWH0idhgUh4qKHwKMFarWahS6uOaLUAwr95YLXiHQrFYQEE7ZMrOAuCREpWR1hXT24jYWVxvgeI12OBQQEbRFLpjV4CAjqSxE60jKsoIPzmi9iZzDsBTMKF4bYBiAYyK5cLJAogkoENohvmxpYiDOVcn4VBrb93bgMkP+osAPzTAVGhQ9CmgzJUJ0Kp1yLBUXc/ac0abHNWuhKrATKsCEvJDpTwB/vaMc56uYm1gFHzcG8gKADuE6yde0QqblqM65oN6BsmT11BbdQgkT5oN5kip695zLM0AJOJaMJsjZdzatS1GC0BGtwOUaQcUS9FK4xaOSM8EqskCHM64uVN7lA9hCu8AK58+TsYG3/XHOaMtrQ7qylaXDIBx1chWYrWMQ7SqXJ8BiCXpgbA+EupAbPuuGh1Rj9PHztIKO5CmqAEsF803AC60XcNSxjakriIXgFxSrmlSfQ71aRWiox+a+kB16V30/aPoGwHvou+/iL5mg2FJiUZJrX3cuJpxbMxSAA9P2v8ZSaaeQW1Uw9/MiypMaq0q1dxfAx4LRHvhzQInRq32mku7aukLk4qR1rwQvT0LqfZKnfCISe/0RhqnApVu42Q0uk2p8ADIHCkKzIc8+SFqJwZHUk7E7MBdc22PycTSGhY5vg2IdiwQGDousZUzPsMmpyaaeY53nYZtgGrzEeBqz/Lt+Wa281yHhydhkgJOKxXwQzNxzDjH8ALhuTecJac7bdvDlmCldO59eDt9bBXD2ab2jssDzAS2qttDOvW2ls1yJPW4U/26HF1LppGmg6ZOQysH72E8xRoM5unNAcOEnzQqwxrnrLpj2C2d1XaLMdsxaU3FAmRq9kvF3s6pt72DubhcP7y+7rk93N+f3hatn9vXQ/rT6dVS+Pgb);lineShape=1;strokeColor=default;" vertex="1" parent="1">
          <mxGeometry x="316.80341116963086" y="409.0020851537822" width="43.232197781073644" height="63.164512427817435" as="geometry" />
        </mxCell>
        <mxCell id="bpA3IQJ9Ygz0QH53XhGm-34" value="" style="rounded=0;whiteSpace=wrap;html=1;" vertex="1" parent="1">
          <mxGeometry x="266" y="304" width="160" height="80" as="geometry" />
        </mxCell>
        <mxCell id="bpA3IQJ9Ygz0QH53XhGm-35" value="" style="shape=stencil(7VfLctswDPwaXTEEwec5Tf8jM3FqT10747ht8veFqqFqQtbGPaWH3mQLEB7cXYCD3L1sH543g3cv59Px6+bn7vG8HeTT4P3usN2cdmd9GuR+kLun42nz5XT8fnicfj8/jJbj07fjj/ELr5MfO/J19PLubfoneHL59z+fJ4f97nDhIIVC6Ry4UAUOyVGInUMi4XX7XCj1GTFxWrcvnlLu7B05B+wTpWLsY123r/qaO3tPpQB7ocqm3gzyr/ra9fUyVZRQoeztCXgUoVIJfQWRvF93YDe3sHmIp4BDcH9oUikih9y+N+MuEQNY1GDbGrn14boDWxzFBJFdMtUeGLG0mNeRPZ9TcyhMHjhwJjHQdhisCoUinYeevoC+Jio92RSOCaTkbc1KDx/X7V37WrPPmRzIZwGklFrE6wW3Bs5noN8H9oG450JQfULsp2DsuZHjej7avr6hKoAOsJMr+b6jkimCCFpC7ksODh6BryR9hBCpggjK3WyYEMgBUEhoijifmrYBcG3pkIUyqGFMyeBOSN4puld55XcAKS3bqpKDBGY8OBNBdROp5AIadf7EGvZMRrGNltuwXVSPQI8W3CkOzoUFN7NrTb6N+2leHm7TFlVsRB3VLjMSFESIm2znmnITTU7V32DGWoZquhTsdxy0wtjXoKcSZN3hQ7YdtL18yLaDAvzfdv6NbSf6Rt4LuYBzSodC31bVO6gXrs2MC8mOoAZWxTCKWoiRg0qSsxHQ+lJbhbN9IAF0S21Zme0VW2gOWrkoAQKJ7Xqn+sFwJLieC1nlBa5f3OefAkSRtzNT1zUP5C60t5cjAeSvy6LhTWwnuMLlv7zO3uCgD39uz0+7/X66fF++t7dt/Wu6qcv9Lw==);lineShape=1;strokeColor=default;" vertex="1" parent="1">
          <mxGeometry x="438.9408445051513" y="447.4693343533397" width="8.314250012772098" height="4.624183922970412" as="geometry" />
        </mxCell>
        <mxCell id="bpA3IQJ9Ygz0QH53XhGm-36" value="Text" style="text;strokeColor=none;fillColor=none;html=1;align=center;verticalAlign=middle;whiteSpace=wrap;rounded=0;fontSize=16;rotation=90;" vertex="1" parent="1">
          <mxGeometry x="285" y="305" width="60" height="30" as="geometry" />
        </mxCell>
        <mxCell id="bpA3IQJ9Ygz0QH53XhGm-37" value="" style="shape=stencil(lVZBctswDHyNrhgSIEHwnKb/yEycWlPXzjhO2/w+UFXZASKh0xtN7woEsAtyoLuX/cPzbsD0cjmfvu9+jY+X/UBfBsTxuN+dx4uuBrof6O7pdN59O59ej4/z7+eHCTmtfpx+Tl/4PfMyUJlImN7mjYZQ2p+drzP+MB4/4LGBoCHkCjUgEAGRIXRIAb5k6NXgCXrfxleE1gw+gfA2ngswO3xK2/jGQGIThpq38cLA3eArIG7je4Fq65MTtCCBrvWzCeS2fGKL4FqGBaQEBIZmCaRNCXLuWkKbM0lYVEnANkJR2QVd5g6ULUFzkEAWzQtbCX+Fta676nWnR+IgAqkw2CdNQdIq/OqUjYBBBGRAm8OkpaBxSmhOqw16IA3ta7ZlzdeddYL4CDXsW5HFvDf3cOTOtOLOwD06rao4fAu6LLQc9zZdQrNph2zPJPx+13o7c1bIQY9zuo6fa5PVCoGMukC2A0+FxZH/VwlBUdVsxRKkAAUzmxmyq1IPs+YMySq7UxihFig2gg6pyJ1FreAiqBQD70zmdd5J8c2gVRR3Jt0JzDNpn/yZoqxzWa6OK6Eu/luX96eyYtgH8lWVttymq/jkLwZBkEB6n7TdWijV/32N/Buvi9vT52k8HOaX08f//VNJt+ZnFt2/Aw==);lineShape=1;strokeColor=default;" vertex="1" parent="1">
          <mxGeometry x="361.067019482992" y="381.57892602323" width="3.546361179272818" height="5.802068670800509" as="geometry" />
        </mxCell>
        <mxCell id="bpA3IQJ9Ygz0QH53XhGm-38" value="" style="shape=stencil(lVfZbuMwDPwavxKSqPO52/5HgaYbY7NJkabX3y+9htyQiSfom+NwJB4zJD3w3ev28WUzBPd6Oh7+bD7Gp9N24F9DCON+uzmOJ3ka+H7gu+fDcfP7eHjbP82/Xx4ny+np7+F9OuFzxkXKbQIF9zW/8Ewl/n/zMNvvxv2ZvffUsgIUSnXdPmSKrOxdP+CqPTO1YOydW7ePgYLXAVAr6/ZJjtP+Z0rAnyzpKPr8TI7XASUR64xKjhlEUCM1DeBAGYTQKjWnQygUQQ1ao6prUCJMqgBaUoAqVcM3hKgBpRPrOqBQqQrQmCLgXUtUNC/kiBwAgCnowomTBbnkqPgLAKh0rRSqdSkiQKaQbNA+QWqYwklaGd0QyWt2S+GQPAXAhhpM2QNA6mQ+I58HhZOgm85S9lSB4mojr/WQKjFwqXlbuJSpIgFFCjpL6QZbc0/iEoOjjPRQbdfLiRKid+tZX+rgcR92S19cEJUyIJNckQw3xCdAJgmCtagl0zBq6fX6hpahIKQQ/kJyN0ptYjjLwxqbTL//rs0aX6vpG7H3qjVFBN2Z5M6IJfQzQJGJoxUhmqvAJSFbMRJq/YjrU5F7YTsgCgC4FF1vjQvAwf4dlm69TDlMV58ubgjwhmrnbixwZmXbW2OFTSDZ5i32jDYZKsn6g1IaOgcW+wjHj+9KWexFnSA/MghMAUpftVbsndaBrGZofl70oyCshvbG/ynDoGs7O0emDID6emvvKzmQH7YrjDAQ8e2nm/Nte3n4XtOfx91u3vLP/7drvbyaPwn4/h8=);lineShape=1;strokeColor=default;" vertex="1" parent="1">
          <mxGeometry x="367.3621731677756" y="381.09975976605597" width="21.589631180606023" height="7.935485032455671" as="geometry" />
        </mxCell>
        <mxCell id="bpA3IQJ9Ygz0QH53XhGm-39" value="" style="shape=stencil(fZbdcgIhDIWfZm8zQAg/17Z9j85U606tdqz9e/tmZ0c0uJ47xP0I5JwEBl59bp8/1kNwn6fj4W39M76ctgM/DCGM++36OJ50NPDjwKvN4bh+PR6+9i/z74/n6ctp9H74nlb4nbmSKZeJCu5vngmZ6jzzNAO7cX8FVKEsBuBKrgKg9oAE8gkCbLeUhEoEQKSUDZDLeWYRKIl8MEDRmHwfyBrBG6Amyu4+kDxxMoB3jhwgYu7TVAsVkFcWCs4CTBEoF4RctKeOxHIf8IXYpikHikAIf+MNUW94AGSSaoAoFIE3AlOyeWU+p2E5S9yfQZcQILVuQOwZdJNoS9Ls3wA5u2XZTIHECqeJ9kDpSaauRiNVcAY1QhdBzeLBli5WazpkSsBLV25uRaqWRyFawTQzRRIQYirJzq5atkBqLfouwqUxLBepthWb10vrWZY6UOAeyKCCtDV625mm9gmUC4Wc3VLJMMIE1BsA2FW9JraVlQB7n3c9oMKhCLEvIM1zBPZ25/umNQ1tVEC2G+fFCC8g398O2hNQuQlVu752DBfA+q0ptnqO5JFmeuIuo9DY7KjY71UxdJV4EntifPWorW++R/dC4t7V3DlIB5cHx2bc7eb3yvX//QNFp+bHDT/+Aw==);lineShape=1;strokeColor=default;" vertex="1" parent="1">
          <mxGeometry x="351.72126505966185" y="295.0808467474317" width="3.014541788461429" height="3.0098298170049667" as="geometry" />
        </mxCell>
        <mxCell id="bpA3IQJ9Ygz0QH53XhGm-40" value="" style="shape=stencil(fZbdcgIhDIWfZm8zQAg/17Z9j85U606tdqz9e/tmZ0c0uJ47xP0I5JwEBl59bp8/1kNwn6fj4W39M76ctgM/DCGM++36OJ50NPDjwKvN4bh+PR6+9i/z74/n6ctp9H74nlb4nbmSKZeJCu5vngmZ6jzzNAO7cX8FVKEsBuBKrgKg9oAE8gkCbLeUhEoEQKSUDZDLeWYRKIl8MEDRmHwfyBrBG6Amyu4+kDxxMoB3jhwgYu7TVAsVkFcWCs4CTBEoF4RctKeOxHIf8IXYpikHikAIf+MNUW94AGSSaoAoFIE3AlOyeWU+p2E5S9yfQZcQILVuQOwZdJNoS9Ls3wA5u2XZTIHECqeJ9kDpSaauRiNVcAY1QhdBzeLBli5WazpkSsBLV25uRaqWRyFawTQzRRIQYirJzq5atkBqLfouwqUxLBepthWb10vrWZY6UOAeyKCCtDV625mm9gmUC4Wc3VLJMMIE1BsA2FW9JraVlQB7n3c9oMKhCLEvIM1zBPZ25/umNQ1tVEC2G+fFCC8g398O2hNQuQlVu752DBfA+q0ptnqO5JFmeuIuo9DY7KjY71UxdJV4EntifPWorW++R/dC4t7V3DlIB5cHx2bc7eb3yvX//QNFp+bHDT/+Aw==);lineShape=1;strokeColor=default;" vertex="1" parent="1">
          <mxGeometry x="335.5922328015972" y="321.53245965065753" width="3.014541788461429" height="3.0098298170049667" as="geometry" />
        </mxCell>
        <mxCell id="bpA3IQJ9Ygz0QH53XhGm-41" value="" style="shape=stencil(fZbdcgIhDIWfZm8zQAg/17Z9j85U606tdqz9e/tmZ0c0uJ47xP0I5JwEBl59bp8/1kNwn6fj4W39M76ctgM/DCGM++36OJ50NPDjwKvN4bh+PR6+9i/z74/n6ctp9H74nlb4nbmSKZeJCu5vngmZ6jzzNAO7cX8FVKEsBuBKrgKg9oAE8gkCbLeUhEoEQKSUDZDLeWYRKIl8MEDRmHwfyBrBG6Amyu4+kDxxMoB3jhwgYu7TVAsVkFcWCs4CTBEoF4RctKeOxHIf8IXYpikHikAIf+MNUW94AGSSaoAoFIE3AlOyeWU+p2E5S9yfQZcQILVuQOwZdJNoS9Ls3wA5u2XZTIHECqeJ9kDpSaauRiNVcAY1QhdBzeLBli5WazpkSsBLV25uRaqWRyFawTQzRRIQYirJzq5atkBqLfouwqUxLBepthWb10vrWZY6UOAeyKCCtDV625mm9gmUC4Wc3VLJMMIE1BsA2FW9JraVlQB7n3c9oMKhCLEvIM1zBPZ25/umNQ1tVEC2G+fFCC8g398O2hNQuQlVu752DBfA+q0ptnqO5JFmeuIuo9DY7KjY71UxdJV4EntifPWorW++R/dC4t7V3DlIB5cHx2bc7eb3yvX//QNFp+bHDT/+Aw==);lineShape=1;strokeColor=default;" vertex="1" parent="1">
          <mxGeometry x="354.94707151127477" y="295.0808467474317" width="3.014541788461429" height="3.0098298170049667" as="geometry" />
        </mxCell>
        <mxCell id="bpA3IQJ9Ygz0QH53XhGm-42" value="" style="shape=stencil(fZbdcgIhDIWfZm8zQAg/17Z9j85U606tdqz9e/tmZ0c0uJ47xP0I5JwEBl59bp8/1kNwn6fj4W39M76ctgM/DCGM++36OJ50NPDjwKvN4bh+PR6+9i/z74/n6ctp9H74nlb4nbmSKZeJCu5vngmZ6jzzNAO7cX8FVKEsBuBKrgKg9oAE8gkCbLeUhEoEQKSUDZDLeWYRKIl8MEDRmHwfyBrBG6Amyu4+kDxxMoB3jhwgYu7TVAsVkFcWCs4CTBEoF4RctKeOxHIf8IXYpikHikAIf+MNUW94AGSSaoAoFIE3AlOyeWU+p2E5S9yfQZcQILVuQOwZdJNoS9Ls3wA5u2XZTIHECqeJ9kDpSaauRiNVcAY1QhdBzeLBli5WazpkSsBLV25uRaqWRyFawTQzRRIQYirJzq5atkBqLfouwqUxLBepthWb10vrWZY6UOAeyKCCtDV625mm9gmUC4Wc3VLJMMIE1BsA2FW9JraVlQB7n3c9oMKhCLEvIM1zBPZ25/umNQ1tVEC2G+fFCC8g398O2hNQuQlVu752DBfA+q0ptnqO5JFmeuIuo9DY7KjY71UxdJV4EntifPWorW++R/dC4t7V3DlIB5cHx2bc7eb3yvX//QNFp+bHDT/+Aw==);lineShape=1;strokeColor=default;" vertex="1" parent="1">
          <mxGeometry x="352.3664263499845" y="296.3711693280768" width="3.014541788461429" height="3.0098298170049667" as="geometry" />
        </mxCell>
        <mxCell id="bpA3IQJ9Ygz0QH53XhGm-43" value="" style="shape=stencil(lVbLbhsxDPyavQ5EUtTjnKb/ESBObdS1A8dtk78v3YU3ppBlm5ssa5ac4ZDSJHcv24fnzcTp5Xw6ft/83j2et5N8mZh3h+3mtDvbapL7Se6ejqfNt9Px5+Fx/v38cDl5Wf04/rp84XXG1YIkFxSnt3mnEUr+u/N1Bux3hxuAMhI7QCfUtg7IDO0e0JBoHSAM8hEoJaS0jmDLgHyICtV1ADGyekBC54A1JHmVEmoPAoyqlgYOVDV+xZ3XDC0BY6gnnAkcaNpGSblDa5B/GQlbii1KqIB8le0TUc2koHrKpMiBpLmge87UIYHxVK8SLhwqOAAUQvMqSYMENio6llkJWQJARvO+s09QIKulNNShWvMEKplvqo/QGlpQ6azoPkIvoayiKEPvdLSAtDUPDRHaVYaPzWfdlj1AwnauyEN35tBKPCZUGSXw6jJ9ljJ3UEQA4n1kImugkJXA20gEFHWnjAKx7fwDIJ8BlAT1ESicXzbeqLnz8cSuOrYahYybjJ2WUQKTtmU0vN8hVwk+BPQ8TlSq4YQ3D5MH2AgswRViXdKrr7I1WjCzb269hfQylldz8qy1hFetsS7DPZXDaWG6Dr6w1omMZIVjX+jLAAsAn36Q/AfAFu/vn6fdfj8/n27/H99LtjW/teT+Dw==);lineShape=1;strokeColor=default;" vertex="1" parent="1">
          <mxGeometry x="529.9597058304598" y="298.4214404756044" width="3.9327700149140346" height="3.0309416384367185" as="geometry" />
        </mxCell>
        <mxCell id="bpA3IQJ9Ygz0QH53XhGm-44" value="" style="shape=stencil(fZbdcgIhDIWfZm8zQAg/17Z9j85U606tdqz9e/tmZ0c0uJ47xP0I5JwEBl59bp8/1kNwn6fj4W39M76ctgM/DCGM++36OJ50NPDjwKvN4bh+PR6+9i/z74/n6ctp9H74nlb4nbmSKZeJCu5vngmZ6jzzNAO7cX8FVKEsBuBKrgKg9oAE8gkCbLeUhEoEQKSUDZDLeWYRKIl8MEDRmHwfyBrBG6Amyu4+kDxxMoB3jhwgYu7TVAsVkFcWCs4CTBEoF4RctKeOxHIf8IXYpikHikAIf+MNUW94AGSSaoAoFIE3AlOyeWU+p2E5S9yfQZcQILVuQOwZdJNoS9Ls3wA5u2XZTIHECqeJ9kDpSaauRiNVcAY1QhdBzeLBli5WazpkSsBLV25uRaqWRyFawTQzRRIQYirJzq5atkBqLfouwqUxLBepthWb10vrWZY6UOAeyKCCtDV625mm9gmUC4Wc3VLJMMIE1BsA2FW9JraVlQB7n3c9oMKhCLEvIM1zBPZ25/umNQ1tVEC2G+fFCC8g398O2hNQuQlVu752DBfA+q0ptnqO5JFmeuIuo9DY7KjY71UxdJV4EntifPWorW++R/dC4t7V3DlIB5cHx2bc7eb3yvX//QNFp+bHDT/+Aw==);lineShape=1;strokeColor=default;" vertex="1" parent="1">
          <mxGeometry x="553.2051360274038" y="284.1131048119478" width="3.014541788461429" height="3.0098298170049667" as="geometry" />
        </mxCell>
        <mxCell id="bpA3IQJ9Ygz0QH53XhGm-45" value="" style="shape=stencil(7VjLbhsxDPwaXwlJlCjpnKb/ESBOYzSNA8d9/X25MLSRKO8EufWQ29rLWYmPGVLa8c3r493Lfhfc6/l0/L7/fbg/P+74yy6Ew/Pj/nQ469OOb3d883A87b+djj+f7y+/X+4Wy+Xpx/HX8oU/F5wIOb+ggvt7+SdSvPzx9WL/dHju7FMin409O2AfyNXB3ntKABAreTcCCnEBAKEoAyAIlQoATL4MABaqaRvAlfK4pZipMACIDVIqVAQAAskIkEoJbcmRH53OukLYBoRi81A0biBKIVPlAVBDi9sWIIYRkGEeljSJBVTkg1ina6GIthSpJAuoaEts2VBr8+o6wFFOFpBB4rSYg7OAGgEgNbqsfHCOHGCQD60S+iWAE941CvdOgBWKpajaMyhvIZ7TgESGfLT2jBhNydhnSIZI4qx9ADlY491TAeXMfr9o1kFRaHzGqisM4++ZeMxwfqeuPfmRzDli5lQKo1xkh1XYkYw5lgiZI4mqkTxtDGCFolEdt6SfiECFVeAMc9QHlwGg2saQU1PNq4A656HCTrKoicl0hI1hYe4k23BLhfK4paK1DcJaE+WRPFqsDMJaPfGYuCVuINPLjpMFJJQH19SkAwjYkhZzmbYUQJS0EEyDVqcTAOiYZHRewypAwrT6TXkv/RZohhazaT0lUUAryOR0bIHectqGVdsdKA2tfqPzJVBEfcG1mHQAtEKZlU+VFRHItzR1AJQHLe86aSvSJSVQmSgaQbV27bjLnCDKabc0lNMBFMS1yuREadVyHRCaDHUANIuVdVTrGBSBMGnYw8xRVH1CEqcVACGy6n2YfEBTRr4ifRUB0qRkyinM0Y8BktiZOOOJNbFNXOZGketb8q3UupMDCmuatDKHVvFb5ytTfJpKJN96XDLjnuoCGsf09JNNWBNs1DogGp3Rgg8I8HnUaNPE51Hjvz5qrI1gtVfdRAOinUCVCQ7YawLKeBJQCUPzoabYCIxKGOq4XpkwKRK6IvKrSne3JYKZYFaIGU5vyjWTNdZ5DviwCMzYDjUxqKXr62yuuQqWsPX1G9cgc9jbxEVY2JHbaarZO0h+0bEoGXtE/eX8xh+xL5aZrp1Jt6bVZO0ZBFS7mGm1qpfo+9w695qAdibYOmNkNvaC7LWFjfahyfHm96Oxf2//YwExBWQf2hT7Zg/3P83ysTm0lV8T/wh15aMXz+/b68PbLffD4enpcknev7e34vrX5Uadb/8B);lineShape=1;strokeColor=default;" vertex="1" parent="1">
          <mxGeometry x="540.5818715018931" y="326.429959389043" width="9.666257737373833" height="44.879187178674535" as="geometry" />
        </mxCell>
        <mxCell id="bpA3IQJ9Ygz0QH53XhGm-46" value="" style="shape=stencil(lVjZctswDPwav2JIghee0/Q/MhOn9tSNM47T4+8LVWUqgtK6eZNlrIhjsYC047vXw8PLfhfc6/Vy/rr/cXy8Hnb8aRfC8fmwvxyverXj+x3fPZ0v+y+X89vz4/z75WGynK6+nb9PT/g546RS9hMquF/zHU9Z/tz4PNufjs8L+yLkYmefqPht+5xISmevD+Bt++Ta3+/+RPJpG8CVqusBQjVvA9QB6SMOmUIEAKbaA5jJ122AV5f6mKOjBJLkE7n+hFjJOQAIVKSvQqIEYvCeQu4AOcC6eWd5kYU8IIYCuC9ciS0NW4DQn6DcShjwlwgNUJkioIYCpM9SzZQB+TSt3JO7atABACKxYbeH9FZqxD5oYSqg0iGQ64OWRBHRu1Dtg5ZCHrjE2nHBAlBa2TcHFoAK+oHHGGrL29YJJVoA4pLGkMwJ0ui4niWVvWABSPdUI3y0AAHUUNXg2uuSc7Cpg1vxCR2hZPJD1BkJkwodD2lCJ6gwlaEQgH3aEGUAMAIkm6aJTEgFMtVoARFJXyUZTkBNrRMwGUAmQQMiDjHkNmO2etSmtbQW2ZpZY5YQv7WDxhMKBsjQowHEMAGGHkUTZXJp6CA0RoPYiaKAhADFjlG5sQpo4QaAIBVQaowtiuhdWwcvAAXvDh8D5NZeC+6hbYbtbiKxicK6Q0Mz+DYkV+2dtdcRivzRLcDYZyjE7xr6n0uAs7PnxpahS0afz2mNgc+PPUmnPQkxglwfry5iGYkLpWHTQ3IX7bIaVU9BfXUQ9vHqrhrQnsd2MdTxXhFArEfTKwNqstq2icVGjyikHhfzDsOQ02nQ3wIHbRkmc2xr3HpOh1cMXY4Bh8RZLXVQGSXYwe9aQOv22iJi7cEmopJgKnDDXiUnWHvQA9PEzjZe5H9tr0+LfIL6TluNtU/Yvlr7gnrYDSrk2+jZPCAZ+4AIMcx73yq4laAPvcXftteLf58Mno6n0/zFYfm//cSgt+bPE3z/Gw==);lineShape=1;strokeColor=default;" vertex="1" parent="1">
          <mxGeometry x="631.8433864091653" y="264.57616604408827" width="15.908199857742089" height="88.87393595115128" as="geometry" />
        </mxCell>
        <mxCell id="bpA3IQJ9Ygz0QH53XhGm-47" value="" style="shape=stencil(7VfLjtswDPwaXwlJ1Ivn7fY/FthsYzRNFtn09fela8gbKvakxxbozXFIS5wZjqiBH972T6+7Ibi3y/n0efd9fL7sB/4whDAe97vzeNGngR8Hfng5nXefzqevx+f59+vTFDk9fTl9m77wY84T4jIlBfdzfpE8Ff/7zcc5/jAer+JTosomwVeSsp1QIhW7QiCJIL5S9ibeUZHt+Braft/jnQPxmWro4jNvx4vrvx9wfCQfLaJUwf4lk9j9eEchgATF29mERFxBgjTAlwo8ubSd4N0C4ZKhuwSq0CWcJZkVJVREoWBX4EIV7ElhTTYhBgoIV0/eCjUmyiBh4skSrdQgXFU40a6g1BSEa6Tq+oSUQQ19zbJ033pzku/iHQQ1NBm0+BobaKvx2imW5YIRUgosorlSBKpgYtsK2TddrXtFrzp1Jw9k6n2zqiu384ixcqM6gbrWEly1KyhoSES1l2mKrTXWMQo3CQJFwZGyZTlrM4Mtcep1rR6OLExXYFv0ZMrA49k3EJcEgaeOMh2thWknONA5Ku1gmdZWC2BLPlPOfQKyPNWSF5ugcgQJ+cYtFCTAW2iYLxhlSuD7jqRjTU0ZSFXPNVtw0WYDCAWKthUytzcbZtSZRcpQRdOx1x2cSiJiYDUBVPxPjCLo0NTlu2P5bxxFgGH/H0X+aBTRTuSOOKGITpHcN5vgZpuU0w07Qh4wp1N+sB5/Rc16BveGpEswaDfpu2FiBhCXbwyYW39vTBehm3akfWFrerGYVobjnWsn0mKo5V68lZHSjqZBNXhbb06U0CxCYvejIhJQ7838q9MUA4KlP/XvXB3vXzX14f2e+jIeDvM19/r//l6rr+Y7MT/+Ag==);lineShape=1;strokeColor=default;" vertex="1" parent="1">
          <mxGeometry x="481.0387266063965" y="491.4287357156468" width="7.124086526831184" height="5.023649877585564" as="geometry" />
        </mxCell>
        <mxCell id="bpA3IQJ9Ygz0QH53XhGm-48" value="" style="shape=stencil(7VfLbttADPwaXYl9P85p+h8B4tRCXTtwnD7+vlSFVU1KGstF0VNva5mzuySHQ27nH972T6+7zpm3y/n0efetf77sO/+hc64/7nfn/sKrzj92/uHldN59Op/ej8/j79enwXJYfTl9HXb4PuKqpxIGlDM/xi/eUPC/vnwcAYf+eAWIkWoVgFgphXWAS+SzAJRMGQECBXlCjZQTAFjKTgIy1bgOsIWil4BKvgJAJGsEwBpDxgCEpTQ7AnldyCsfStthOQ86qjVRBvaOqrpPIAuCasmq/S0ZYG+0PWc5WWRvZERLIAPtk9qfeVqQv1b6mzM5sH8gb6U90xAk2HPhFAEInDDAoTRxcuJQJgM8SIWydJlJVUGKs535TB7ZB8qy0DykaOYiSfJCFAElOKPK3jTtWLav5GRIOYkgZaxdSXIoUAEp4wop8j5ThJfti9YVyyc6CFDayEpTEIBrRHLCTXq8DAhtvwlQYBlXQ0Xy2tvG9OUkJDKqIbB0AJoWqyt5AICw5kTO33Ol7MjNnQb6niY13xhWLjWjahMnLs3keqAG8oH1UXIbcy97CvJGmNusbllyG9dOcZTkfW7UZm7itq32K+dM3oe1BaSMW3xV+gu1i0vNzcURVU5tYrtRfu8GxKBDxMRNwOd/M+jIYt4w6Mg0bBl0ZkfcGHTUIPIHgw4aHxsN/g86f2XQSU1qmz1rH+oHngtXNZDYWLgmdU41EDjJcv+I90gRx89rqXNI6jhCUdmjCigzKTKU0RjCQqXaWZuT1qRRCVFoc8zaUBEVg24JnZMJ45ouIAFXkjAhIhU0SdXWvCZAhe1m0ITZYATlPen3FjeQgE649+G7AcCL3+/sl/5wGJ/p1//rdzl/Gt/0/vEn);lineShape=1;strokeColor=default;" vertex="1" parent="1">
          <mxGeometry x="318.0671994045556" y="595.1729201447765" width="29.25397221096034" height="28.265196302725144" as="geometry" />
        </mxCell>
      </root>
    </mxGraphModel>
  </diagram>
</mxfile>
